<svg width="378" height="378" xmlns="http://www.w3.org/2000/svg" xmlns:xlink="http://www.w3.org/1999/xlink"
    xml:space="preserve" overflow="hidden">
    <defs>
        <filter id="fx0" x="-10%" y="-10%" width="120%" height="120%" filterUnits="userSpaceOnUse"
            primitiveUnits="userSpaceOnUse">
            <feComponentTransfer color-interpolation-filters="sRGB">
                <feFuncR type="discrete" tableValues="0 0" />
                <feFuncG type="discrete" tableValues="0 0" />
                <feFuncB type="discrete" tableValues="0 0" />
                <feFuncA type="linear" slope="0.631373" intercept="0" />
            </feComponentTransfer>
            <feGaussianBlur stdDeviation="6.875 6.875" />
        </filter>
        <clipPath id="clip1">
            <rect x="868" y="469" width="378" height="378" />
        </clipPath>
        <clipPath id="clip2">
            <rect x="-3" y="-3" width="387" height="387" />
        </clipPath>
        <clipPath id="clip3">
            <rect x="0" y="0" width="380" height="380" />
        </clipPath>
        <linearGradient x1="1057" y1="483" x2="1057" y2="819" gradientUnits="userSpaceOnUse" spreadMethod="reflect"
            id="fill4">
            <stop offset="0" stop-color="#6083CB" />
            <stop offset="0.5" stop-color="#3E70CA" />
            <stop offset="1" stop-color="#2E61BA" />
        </linearGradient>
    </defs>
    <g clip-path="url(#clip1)" transform="translate(-868 -469)">
        <g clip-path="url(#clip2)" filter="url(#fx0)" transform="translate(867 468)">
            <g clip-path="url(#clip3)">
                <path
                    d="M21.9999 189.875C21.9999 97.0912 97.2161 21.875 190 21.875 282.784 21.875 358 97.0912 358 189.875 358 282.659 282.784 357.875 190 357.875 97.2161 357.875 21.9999 282.659 21.9999 189.875Z"
                    fill="#FF0000" fill-rule="evenodd" />
            </g>
        </g>
        <path
            d="M889 651C889 558.216 964.216 483 1057 483 1149.78 483 1225 558.216 1225 651 1225 743.784 1149.78 819 1057 819 964.216 819 889 743.784 889 651Z"
            fill="url(#fill4)" fill-rule="evenodd" />
    </g>
</svg>